<?xml version="1.0" standalone="no"?>
<!DOCTYPE svg PUBLIC "-//W3C//DTD SVG 20010904//EN"
 "http://www.w3.org/TR/2001/REC-SVG-20010904/DTD/svg10.dtd">
<svg version="1.0" xmlns="http://www.w3.org/2000/svg"
 width="1024.000000pt" height="1024.000000pt" viewBox="0 0 1024.000000 1024.000000"
 preserveAspectRatio="xMidYMid meet">

<g transform="translate(0.000000,1024.000000) scale(0.100000,-0.100000)"
fill="#ffffff" stroke="none">
<path d="M5455 8224 c-167 -41 -358 -205 -405 -348 l-12 -38 -24 40 c-13 21
-52 81 -86 133 -50 75 -72 99 -108 117 -78 39 -164 22 -291 -60 -60 -39 -91
-87 -91 -143 0 -44 16 -71 92 -156 109 -121 108 -118 25 -138 -70 -18 -257
-108 -351 -171 -118 -79 -257 -226 -324 -340 -118 -201 -140 -275 -140 -475 0
-160 33 -393 69 -487 5 -13 14 -71 22 -130 16 -131 3 -257 -40 -393 -51 -160
-56 -192 -55 -350 2 -179 19 -264 73 -381 142 -302 416 -525 756 -615 113 -30
131 -32 300 -33 190 -1 248 8 425 65 197 64 451 235 604 407 235 264 378 601
437 1031 23 174 24 267 4 476 -36 361 -140 648 -328 897 -67 88 -236 258 -299
300 -12 8 -18 19 -14 26 3 6 43 30 89 54 144 75 285 238 364 420 41 95 50 146
33 187 -20 49 -54 64 -165 72 -55 4 -161 17 -235 28 -155 24 -240 25 -325 5z
m325 -174 c69 -11 146 -22 173 -25 29 -4 47 -11 47 -19 0 -29 -114 -195 -171
-248 -96 -90 -232 -158 -319 -158 -29 0 -174 41 -186 52 -1 2 23 3 54 3 43 0
57 -4 57 -14 0 -8 6 -16 13 -18 17 -6 15 15 -4 34 -12 12 -13 18 -3 23 7 5 10
19 6 38 -3 17 -1 35 6 42 10 10 9 11 -3 6 -8 -4 -1 4 15 19 17 14 59 40 95 58
l65 32 -38 3 c-80 7 -140 -23 -298 -144 -62 -47 -116 -63 -126 -37 -17 45 59
176 154 264 115 107 220 128 463 89z m-949 -167 c42 -65 85 -134 97 -154 l22
-37 -62 -7 c-60 -7 -62 -7 -82 21 -11 16 -60 67 -108 113 -48 46 -88 89 -88
96 0 7 12 16 27 20 15 3 42 20 60 36 19 16 39 29 46 29 7 0 47 -53 88 -117z
m307 -369 c116 -23 261 -75 347 -125 91 -52 247 -180 329 -270 108 -119 231
-328 275 -469 59 -186 91 -414 91 -641 0 -444 -124 -815 -376 -1125 -159 -196
-417 -365 -652 -425 -251 -64 -518 -43 -738 60 -79 37 -273 182 -275 205 -1 6
0 23 1 39 2 28 -23 39 -34 15 -14 -34 -123 133 -161 247 -23 71 -47 296 -39
375 4 36 22 127 40 202 64 263 67 367 15 625 -65 327 -68 533 -10 689 66 177
320 444 460 484 26 8 45 4 100 -19 247 -104 409 -314 455 -591 25 -152 18
-385 -17 -560 -27 -134 -151 -390 -188 -390 -10 0 -29 17 -42 38 -21 32 -30
37 -65 40 -35 3 -45 -1 -63 -24 -23 -29 -21 -58 9 -109 41 -69 39 -80 -61
-282 -50 -104 -113 -219 -139 -258 -25 -38 -57 -89 -70 -112 -13 -24 -27 -43
-32 -43 -4 0 -8 -9 -8 -19 0 -11 -8 -27 -17 -36 -12 -13 -14 -21 -6 -34 8 -12
23 -15 69 -13 32 2 61 8 62 13 2 5 7 9 11 9 9 0 174 166 230 233 79 93 168
244 192 325 l13 44 40 -8 c23 -5 84 -9 136 -9 133 0 203 27 287 110 69 69 92
121 74 168 -22 57 -99 61 -129 5 -49 -88 -112 -118 -255 -118 -77 0 -90 6 -61
30 33 28 105 180 165 350 25 68 50 298 50 446 -1 150 -31 322 -77 432 -67 163
-121 239 -251 352 -46 40 -83 80 -83 89 0 21 25 46 60 60 40 16 252 13 338 -5z"/>
<path d="M5660 7715 c-14 -16 -10 -18 14 -9 9 3 16 10 16 15 0 14 -16 11 -30
-6z"/>
<path d="M4323 7020 c-194 -69 -288 -175 -218 -245 35 -36 65 -31 168 25 51
27 121 56 157 64 49 11 72 23 93 46 35 39 34 64 -2 101 -26 26 -36 29 -88 28
-32 0 -82 -9 -110 -19z"/>
<path d="M5458 7023 c-70 -44 -52 -127 32 -151 25 -7 68 -19 95 -27 28 -8 79
-33 115 -55 86 -53 128 -53 154 -1 21 40 8 79 -41 128 -94 94 -285 151 -355
106z"/>
<path d="M4353 6639 c-84 -15 -178 -84 -220 -161 -26 -49 -24 -197 4 -259 27
-60 75 -113 131 -146 38 -23 57 -27 126 -27 69 -1 89 3 137 27 111 54 183 162
182 273 -1 77 -27 138 -88 203 -71 76 -168 108 -272 90z m177 -105 c52 -32 78
-115 47 -154 -81 -103 -247 -27 -207 95 22 68 97 96 160 59z m-145 -279 c43
-42 28 -115 -23 -115 -45 0 -101 46 -102 84 -1 55 81 76 125 31z"/>
<path d="M5503 6630 c-86 -20 -193 -114 -219 -193 -20 -60 -13 -160 15 -222
23 -50 87 -116 145 -150 58 -34 151 -37 218 -7 71 31 151 115 177 185 43 118
21 219 -69 309 -77 77 -165 103 -267 78z m204 -100 c34 -21 55 -72 46 -112 -9
-35 -43 -67 -84 -79 -49 -15 -106 11 -133 62 -24 44 -16 80 24 120 35 36 98
40 147 9z m-167 -265 c76 -39 60 -125 -23 -125 -34 0 -77 40 -77 71 0 26 36
69 57 69 8 0 27 -7 43 -15z"/>
<path d="M4285 5915 c-5 -2 -22 -6 -38 -9 -61 -14 -87 -76 -47 -116 17 -17 33
-20 108 -20 80 0 91 2 110 23 36 38 28 88 -19 112 -25 13 -88 19 -114 10z"/>
<path d="M5573 5910 c-12 -5 -29 -20 -38 -34 -15 -22 -15 -27 0 -55 24 -47 66
-64 148 -59 58 3 73 8 88 27 26 32 24 55 -10 93 -26 30 -34 32 -97 35 -38 2
-79 -1 -91 -7z"/>
<path d="M6135 4081 c-66 -16 -127 -63 -163 -123 -16 -27 -18 -28 -107 -28
-152 0 -197 -23 -276 -142 -27 -40 -53 -78 -59 -85 -5 -7 -10 -17 -10 -23 0
-5 -4 -10 -10 -10 -5 0 -10 -6 -10 -14 0 -17 -24 -28 -45 -20 -8 4 -15 12 -15
20 0 8 -17 40 -37 71 -111 169 -166 204 -326 211 -125 6 -173 -10 -213 -71
-22 -33 -29 -56 -32 -109 -2 -38 -6 -68 -9 -68 -3 0 -33 7 -67 16 -62 16 -176
14 -200 -4 -25 -20 -46 -20 -82 0 -82 44 -325 -1 -341 -63 -7 -25 -36 -23
-128 12 -82 30 -201 36 -285 15 -85 -22 -183 -68 -236 -111 -49 -40 -66 -43
-97 -15 -33 31 -139 60 -220 60 -82 0 -202 -30 -267 -68 -25 -14 -47 -29 -50
-33 -5 -7 -27 -12 -47 -10 -7 0 -13 10 -13 20 0 11 -12 42 -26 70 -68 130
-233 214 -421 212 -107 0 -372 -54 -435 -89 -53 -28 -69 -48 -85 -107 -16 -61
-16 -1046 0 -1107 16 -58 45 -94 100 -119 57 -25 71 -24 270 16 333 68 431
104 526 195 29 28 58 50 64 50 7 0 28 -10 47 -23 75 -49 199 -87 285 -87 96 0
255 59 332 124 38 32 61 33 90 2 33 -34 99 -49 200 -44 62 3 97 9 120 23 31
18 33 18 72 0 33 -14 58 -17 135 -13 54 3 102 11 110 17 12 10 23 10 52 1 56
-19 253 -7 294 16 16 10 30 22 30 27 0 5 7 15 15 24 20 20 61 10 68 -17 13
-50 194 -73 280 -36 32 14 42 15 54 4 10 -8 51 -12 127 -12 114 0 150 9 200
53 23 21 56 84 56 110 0 27 14 34 52 23 28 -7 124 -2 193 10 17 3 20 -5 27
-61 6 -54 12 -70 40 -98 18 -18 50 -38 73 -44 58 -16 241 -17 256 -1 17 16 49
15 95 -4 32 -13 64 -16 169 -12 100 4 135 2 151 -9 44 -29 227 -34 287 -8 9 4
17 15 17 25 0 37 38 30 85 -16 52 -49 112 -72 216 -81 70 -6 107 6 143 46 25
28 35 27 73 -8 74 -67 223 -116 332 -109 56 4 71 1 101 -18 46 -30 150 -57
225 -58 94 -1 163 46 185 123 13 49 14 1120 0 1156 -17 45 -111 136 -165 160
-133 59 -247 32 -318 -73 -24 -35 -30 -57 -34 -120 l-6 -78 -91 1 c-87 0 -95
-2 -178 -42 -82 -40 -118 -46 -118 -19 0 30 -128 109 -224 138 -58 17 -84 20
-162 15 -76 -5 -98 -3 -126 11 -24 12 -57 17 -121 17 -48 0 -87 1 -87 3 0 1
10 22 21 44 39 77 8 206 -68 284 -61 63 -184 103 -258 85z m114 -166 c49 -25
81 -72 81 -117 0 -115 -100 -172 -191 -107 -82 58 -75 186 14 224 41 18 62 18
96 0z m-1052 -157 c11 -13 37 -52 58 -88 39 -66 181 -278 211 -315 11 -13 18
-16 21 -8 2 6 63 100 135 208 85 127 140 200 156 206 13 5 54 9 92 9 104 0
107 -5 114 -170 3 -74 7 -283 8 -463 3 -372 8 -349 -78 -361 -54 -7 -116 7
-135 31 -11 12 -15 76 -19 271 l-5 255 -103 -156 c-109 -166 -138 -197 -183
-197 -36 0 -62 32 -168 209 -47 78 -89 141 -93 141 -4 0 -8 -112 -8 -250 l0
-250 -25 -16 c-33 -22 -147 -16 -172 9 -25 25 -31 116 -22 322 5 99 8 275 9
392 0 253 -5 243 109 243 68 0 80 -3 98 -22z m2624 -78 c28 0 47 -7 69 -27
l31 -28 -1 -528 c0 -291 -2 -533 -6 -538 -8 -13 -102 -10 -144 4 -30 10 -37
19 -51 62 -10 33 -18 45 -23 36 -16 -25 -90 -51 -148 -51 -89 0 -162 32 -234
104 -101 101 -134 187 -134 351 0 113 19 169 81 240 53 60 117 85 219 85 94 0
153 -20 203 -67 l27 -27 0 182 c0 176 1 181 22 197 13 8 29 13 36 10 8 -3 31
-5 53 -5z m-5302 -60 c28 -13 66 -39 85 -60 89 -98 79 -269 -20 -371 l-36 -36
29 -7 c84 -22 143 -116 143 -231 0 -80 -21 -134 -75 -200 -64 -79 -152 -111
-505 -185 -122 -25 -150 -24 -166 8 -8 17 -12 166 -13 521 -2 473 -1 497 17
516 14 16 51 26 153 44 74 12 141 24 149 26 44 11 191 -5 239 -25z m1915 -69
c9 -10 20 -30 24 -45 l7 -26 50 35 c138 96 309 60 380 -81 l30 -59 3 -277 4
-277 -31 -15 c-17 -9 -55 -16 -86 -16 -49 0 -60 4 -86 29 l-29 29 0 224 c0
249 -2 257 -65 278 -45 15 -93 0 -134 -42 l-31 -32 0 -232 c0 -274 4 -264
-113 -264 -59 0 -71 3 -93 25 l-24 24 6 353 c3 194 7 358 9 365 5 14 33 20
106 22 43 1 60 -3 73 -18z m1864 -23 c6 -8 11 -153 14 -365 5 -336 4 -353 -14
-373 -19 -20 -26 -22 -73 -22 -65 0 -79 4 -106 31 l-29 30 6 338 c4 186 11
346 16 356 7 14 23 17 92 17 55 0 87 -4 94 -12z m-2337 -14 c91 -27 155 -85
180 -165 6 -19 13 -146 16 -284 4 -199 2 -254 -9 -268 -17 -22 -110 -38 -154
-25 -19 5 -39 19 -45 31 -7 12 -13 23 -14 25 -2 2 -24 -12 -49 -30 -44 -30
-53 -33 -144 -36 -95 -3 -98 -3 -152 30 -68 42 -105 105 -104 182 2 141 129
230 345 243 l99 6 0 27 c0 88 -152 119 -267 55 -25 -14 -47 -25 -49 -25 -2 0
-17 27 -34 59 -16 33 -34 62 -40 66 -19 12 -10 23 37 51 122 71 266 93 384 58z
m2657 -20 c14 -9 22 -24 22 -43 0 -41 7 -42 54 -11 52 35 126 53 181 44 100
-16 192 -99 220 -198 9 -34 16 -136 21 -307 6 -253 6 -257 -15 -278 -37 -37
-152 -23 -191 24 -12 14 -16 64 -20 249 -5 221 -6 232 -28 263 -45 63 -138 66
-193 7 -24 -25 -24 -28 -24 -238 0 -263 -1 -266 -101 -266 -60 0 -68 3 -96 30
l-30 31 7 347 c5 226 11 352 18 361 14 17 141 6 175 -15z m-3379 -50 c111 -33
204 -159 205 -281 1 -51 -3 -66 -20 -84 -24 -24 -264 -95 -356 -105 -65 -7
-73 -21 -33 -53 57 -44 147 -39 225 14 l50 33 67 -64 68 -64 -50 -47 c-74 -69
-157 -104 -259 -110 -96 -6 -148 7 -229 59 -135 87 -187 316 -109 480 53 112
128 179 246 219 65 22 128 23 195 3z"/>
<path d="M7481 3163 c-76 -40 -102 -133 -61 -218 32 -66 76 -96 150 -102 57
-5 63 -4 91 23 35 34 49 78 49 160 0 53 -3 63 -27 86 -63 59 -147 80 -202 51z"/>
<path d="M2265 3409 c-95 -21 -85 -7 -85 -124 0 -104 0 -105 23 -101 12 3 58
12 102 21 43 8 89 22 101 29 23 16 54 73 54 101 0 68 -82 99 -195 74z"/>
<path d="M2280 2996 l-95 -23 4 -99 c1 -54 4 -100 5 -101 6 -7 206 42 238 58
84 43 91 142 13 175 -43 18 -49 17 -165 -10z"/>
<path d="M3797 3067 c-116 -36 -113 -137 3 -137 87 0 130 36 130 111 0 25 -4
29 -27 29 -16 0 -37 2 -48 5 -11 2 -37 -1 -58 -8z"/>
<path d="M3060 3248 c-30 -16 -52 -36 -67 -63 -30 -54 -20 -69 38 -56 24 5 79
13 122 16 87 8 97 17 77 66 -25 59 -95 74 -170 37z"/>
</g>
</svg>
